<?xml version="1.0"?><svg width="744.09448819" height="1052.3622047" xmlns="http://www.w3.org/2000/svg">
 <title>placeholder</title>

 <metadata id="metadata7">image/svg+xmlMan silhouetteMan silhouette people person head shoulders face</metadata>
 <g>
  <title>Layer 1</title>
  <g id="layer1">
   <path fill="#7f7f7f" id="path2396" d="m45.42857,778.046631c0,-10.652344 17.738667,-102.202759 20.745197,-107.067444c1.07119,-1.733215 3.731956,-12.960022 5.912766,-24.948425c5.08728,-27.965454 14.466591,-58.013123 19.987419,-64.032104c2.373352,-2.587524 23.670876,-8.738098 47.327873,-13.66803c72.674698,-15.144775 104.705215,-26.810425 120.518982,-43.893311c7.537506,-8.142456 18.937378,-16.628662 25.333038,-18.858185c10.161377,-3.542267 11.628479,-5.79599 11.628479,-17.863647c0,-7.59549 -2.321655,-17.141235 -5.15918,-21.21283c-2.837524,-4.071594 -6.407532,-15.002808 -7.93335,-24.291595c-1.525848,-9.288757 -5.959686,-19.910004 -9.853027,-23.602692c-3.893311,-3.692719 -7.078796,-8.405487 -7.078796,-10.472839c0,-2.067352 -3.799927,-8.898438 -8.444336,-15.180145c-7.203018,-9.742462 -8.513474,-16.478394 -8.914749,-45.822815c-0.775223,-56.693146 4.084625,-82.635742 19.960892,-106.554352c22.417175,-33.772903 65.708252,-57.16452 105.994507,-57.272385c15.74176,-0.042145 22.355865,1.783005 28.966125,7.992996c4.991669,4.689438 16.722534,9.336975 28.111908,11.137375c22.659912,3.582062 43.039459,17.972198 52.934479,37.377472c4.97467,9.75589 6.563416,22.120621 6.567841,51.115982c0.003265,21.443085 1.654755,39.266266 3.75885,40.566681c10.205475,6.307343 0.684967,49.8862 -15.325226,70.149475c-6.020355,7.619598 -10.983154,16.908356 -11.028473,20.641693c-0.045349,3.733368 -3.423065,14.150024 -7.506073,23.148163c-13.560272,29.884155 -8.894043,59.461029 10.425476,66.081512c3.600067,1.233673 12.456665,9.843658 19.681244,19.13327c7.224609,9.289673 17.357849,17.844727 22.51828,19.011169c5.1604,1.166565 28.302795,9.555847 51.427429,18.643005c23.124695,9.087097 43.171997,16.522034 44.549622,16.522034c1.377625,0 9.82074,4.644348 18.762512,10.320862c15.979553,10.144226 24.122925,23.685059 24.122925,40.111633c0,4.416016 3.492371,14.719421 7.760803,22.896484c6.86908,13.15918 11.544434,38.394836 21.006714,113.384766l2.012634,15.950439l-319.386414,0l-319.386372,0l0,-9.444214z"/>
  </g>
 </g>
</svg>